<svg width="104" height="105" viewBox="0 0 104 105" fill="none" xmlns="http://www.w3.org/2000/svg">
<path d="M99.6736 32.3216C95.7584 23.0381 89.1993 15.1672 80.9652 9.59709C72.7109 4.02696 62.7614 0.77771 52.0651 0.77771C44.941 0.77771 38.1398 2.23079 31.944 4.83422C22.6604 8.74946 14.7896 15.3085 9.21947 23.5426C3.64933 31.7969 0.400085 41.7465 0.400085 52.4427C0.400085 59.5669 1.85316 66.3681 4.4566 72.5638C8.37184 81.8474 14.9309 89.7182 23.165 95.2884C31.4193 100.859 41.3486 104.108 52.0247 104.108H52.0449C52.0449 104.108 52.0449 104.108 52.0651 104.108C59.1892 104.108 65.9905 102.655 72.1862 100.051C81.4698 96.136 89.3406 89.577 94.9107 81.3429C100.481 73.0886 103.73 63.139 103.73 52.4427C103.73 45.3186 102.277 38.5174 99.6736 32.3216ZM96.2024 48.7495H81.6514C81.4092 43.1592 80.6423 37.8514 79.4516 32.8867C79.0682 31.2924 78.6242 29.7182 78.16 28.2046C80.8441 26.8928 83.387 25.3993 85.7886 23.7242C86.8583 24.9755 87.8674 26.2873 88.7957 27.6597C92.9329 33.7949 95.5767 40.9796 96.2024 48.7495ZM71.3184 73.8756C66.4143 72.2208 61.1872 71.1915 55.7583 70.8686V56.136H74.3053C74.0833 61.1208 73.3769 65.8635 72.3073 70.243C72.0046 71.4942 71.6817 72.6849 71.3184 73.8756ZM32.4687 72.6244C31.056 67.5992 30.1277 62.029 29.8451 56.136H48.3719V70.8686C42.943 71.1915 37.7361 72.2409 32.832 73.8756C32.7109 73.4518 32.5898 73.0482 32.4687 72.6244ZM32.832 31.0098C37.7361 32.6647 42.943 33.694 48.3719 34.0169V48.7495H29.8451C30.0671 43.7646 30.7735 39.0219 31.8431 34.6425C32.1458 33.4114 32.4687 32.2005 32.832 31.0098ZM55.7583 8.9311C56.828 9.35491 57.8976 9.96036 59.0076 10.7676C60.9854 12.2207 62.9632 14.3196 64.7997 16.9836C66.2326 19.0421 67.5444 21.4437 68.7352 24.0875C64.6383 25.4397 60.279 26.3277 55.7583 26.6304V8.9311ZM75.1529 20.3741C73.8411 17.5285 72.3477 14.925 70.7331 12.584C70.6322 12.4225 70.5111 12.2812 70.4102 12.1198C74.0429 13.7747 77.4334 15.9139 80.4607 18.4367C78.9067 19.4659 77.272 20.4145 75.5565 21.2621C75.4153 20.9795 75.2942 20.6768 75.1529 20.3741ZM39.4516 16.8221C41.4899 13.916 43.6897 11.696 45.8492 10.2631C46.717 9.698 47.5444 9.254 48.3719 8.91092V26.6506C43.831 26.3479 39.4919 25.48 35.3951 24.1077C35.496 23.9059 35.5767 23.6839 35.6776 23.4821C36.828 20.9997 38.0994 18.7596 39.4516 16.8221ZM48.3719 78.2349V95.9544C47.3224 95.5306 46.2326 94.9251 45.1428 94.1178C43.165 92.6648 41.1872 90.5659 39.3507 87.9019C37.9178 85.8434 36.5858 83.4619 35.3951 80.7778C39.4919 79.4256 43.831 78.5578 48.3719 78.2349ZM28.9571 84.5114C30.2689 87.357 31.7624 89.9604 33.3769 92.3015C33.4778 92.4629 33.5989 92.6042 33.6998 92.7657C30.0671 91.1108 26.6968 88.9715 23.6695 86.4488C25.2235 85.4196 26.8582 84.4912 28.5535 83.6234C28.6948 83.9261 28.8158 84.2288 28.9571 84.5114ZM64.6988 88.0633C62.6605 90.9695 60.4607 93.1895 58.3012 94.6224C57.4334 95.2077 56.5858 95.6516 55.7583 95.9746V78.2349C60.2992 78.5376 64.6585 79.4256 68.7553 80.7778C68.6544 80.9796 68.5737 81.2016 68.4728 81.4034C67.3224 83.8857 66.051 86.1259 64.6988 88.0633ZM55.7583 48.7495V34.0169C61.1872 33.694 66.4143 32.6445 71.3184 31.0098C71.4395 31.4135 71.5606 31.8373 71.6817 32.2611C73.0944 37.2863 74.0227 42.8565 74.3053 48.7495H55.7583ZM33.72 12.14C33.5585 12.362 33.4173 12.584 33.2558 12.7858C31.5202 15.3085 29.946 18.1541 28.5535 21.2621C26.8582 20.4145 25.2437 19.4659 23.6897 18.4568C24.8401 17.4881 26.051 16.5799 27.3022 15.7323C29.3204 14.36 31.4798 13.1491 33.72 12.14ZM11.2578 35.2278C13.0338 31.03 15.4354 27.1551 18.3416 23.7444C20.7432 25.4195 23.2861 26.9129 25.9501 28.2046C25.7281 28.8907 25.5262 29.5769 25.3446 30.2631C23.7503 35.9341 22.7412 42.1703 22.4586 48.7495H7.94802C8.33147 43.9866 9.48183 39.4256 11.2578 35.2278ZM7.94802 56.136H22.4586C22.7008 61.7263 23.4677 67.0341 24.6584 71.9988C25.0419 73.5931 25.4859 75.1673 25.9501 76.6809C23.2659 77.9725 20.723 79.466 18.3416 81.141C17.2719 79.8898 16.283 78.578 15.3547 77.2258C11.2174 71.1108 8.57365 63.9059 7.94802 56.136ZM70.3497 92.806C70.5111 92.5639 70.6928 92.3419 70.8542 92.0997C72.5898 89.577 74.164 86.7112 75.5565 83.6032C77.2518 84.471 78.9067 85.4196 80.4607 86.4488C79.3103 87.4175 78.0994 88.3257 76.8482 89.1733C74.7896 90.5659 72.6302 91.7768 70.3497 92.806ZM92.8926 69.6779C91.1166 73.8756 88.715 77.7303 85.8088 81.1612C83.4072 79.4861 80.8441 77.9927 78.16 76.6809C78.3618 76.0149 78.5838 75.3287 78.7654 74.6224C80.3598 68.9513 81.3689 62.7152 81.6514 56.136H96.2024C95.8189 60.8988 94.6686 65.4599 92.8926 69.6779Z" fill="white"/>
</svg>
