<svg width="81" height="98" viewBox="0 0 81 98" fill="none" xmlns="http://www.w3.org/2000/svg">
<path d="M72.2295 34.7502C69.5785 28.4643 65.1373 23.1349 59.5619 19.3633C53.9729 15.5917 47.236 13.3916 39.9934 13.3916C35.1696 13.3916 30.5645 14.3755 26.3693 16.1383C20.0833 18.7894 14.7539 23.2305 10.9823 28.8059C7.21077 34.3949 5.01068 41.1319 5.01068 48.3744C5.01068 53.1982 5.99457 57.8033 7.75738 61.9985C10.4084 68.2845 14.8496 73.6139 20.425 77.3855C26.014 81.157 32.7372 83.3571 39.9661 83.3571H39.9798C39.9798 83.3571 39.9798 83.3571 39.9934 83.3571C44.8172 83.3571 49.4224 82.3732 53.6176 80.6104C59.9035 77.9594 65.2329 73.5182 69.0045 67.9429C72.7761 62.3538 74.9762 55.6169 74.9762 48.3744C74.9762 43.5506 73.9923 38.9454 72.2295 34.7502ZM69.8791 45.8737H60.0265C59.8625 42.0884 59.3433 38.4945 58.537 35.1329C58.2774 34.0533 57.9768 32.9874 57.6625 31.9625C59.4799 31.0743 61.2017 30.0631 62.8279 28.9289C63.5521 29.7761 64.2354 30.6644 64.864 31.5936C67.6653 35.7478 69.4555 40.6126 69.8791 45.8737ZM53.03 62.8867C49.7093 61.7662 46.1701 61.0693 42.4942 60.8506V50.8751H55.0524C54.9021 54.2504 54.4238 57.4617 53.6996 60.427C53.4946 61.2743 53.2759 62.0805 53.03 62.8867ZM26.7246 62.0395C25.768 58.6369 25.1394 54.8653 24.9481 50.8751H37.4927V60.8506C33.8168 61.0693 30.2912 61.7799 26.9706 62.8867C26.8886 62.5998 26.8066 62.3265 26.7246 62.0395ZM26.9706 33.862C30.2912 34.9825 33.8168 35.6795 37.4927 35.8981V45.8737H24.9481C25.0984 42.4984 25.5767 39.2871 26.301 36.3217C26.5059 35.4882 26.7246 34.6682 26.9706 33.862ZM42.4942 18.9123C43.2184 19.1993 43.9427 19.6093 44.6942 20.1559C46.0334 21.1398 47.3726 22.5609 48.6161 24.3647C49.5864 25.7586 50.4746 27.3847 51.2808 29.1749C48.5068 30.0904 45.5551 30.6917 42.4942 30.8967V18.9123ZM55.6264 26.6605C54.7381 24.7337 53.7269 22.9709 52.6337 21.3857C52.5654 21.2764 52.4834 21.1808 52.415 21.0714C54.8748 22.192 57.1705 23.6405 59.2203 25.3486C58.1681 26.0455 57.0612 26.6878 55.8997 27.2617C55.804 27.0704 55.722 26.8654 55.6264 26.6605ZM31.4527 24.2554C32.8329 22.2876 34.3224 20.7845 35.7846 19.8142C36.3722 19.4316 36.9324 19.131 37.4927 18.8987V30.9103C34.4181 30.7054 31.4801 30.1178 28.706 29.1885C28.7744 29.0519 28.829 28.9016 28.8973 28.7649C29.6763 27.0841 30.5372 25.5673 31.4527 24.2554ZM37.4927 65.8384V77.8364C36.7821 77.5494 36.0442 77.1395 35.3063 76.5929C33.9671 75.609 32.6279 74.1878 31.3844 72.384C30.4142 70.9902 29.5123 69.3777 28.706 67.5602C31.4801 66.6447 34.4181 66.0571 37.4927 65.8384ZM24.3469 70.0883C25.2351 72.0151 26.2463 73.7779 27.3395 75.363C27.4078 75.4723 27.4898 75.568 27.5582 75.6773C25.0984 74.5568 22.8164 73.1083 20.7666 71.4001C21.8188 70.7032 22.9257 70.0746 24.0736 69.487C24.1692 69.692 24.2512 69.897 24.3469 70.0883ZM48.5478 72.4933C47.1676 74.4611 45.6781 75.9643 44.216 76.9345C43.6284 77.3308 43.0544 77.6314 42.4942 77.8501V65.8384C45.5688 66.0434 48.5205 66.6447 51.2945 67.5602C51.2262 67.6969 51.1715 67.8472 51.1032 67.9838C50.3243 69.6647 49.4634 71.1815 48.5478 72.4933ZM42.4942 45.8737V35.8981C46.1701 35.6795 49.7093 34.9689 53.03 33.862C53.112 34.1353 53.194 34.4223 53.2759 34.7092C54.2325 38.1119 54.8611 41.8834 55.0524 45.8737H42.4942ZM27.5718 21.0851C27.4625 21.2354 27.3668 21.3857 27.2575 21.5224C26.0823 23.2305 25.0164 25.1573 24.0736 27.2617C22.9257 26.6878 21.8325 26.0455 20.7803 25.3623C21.5592 24.7064 22.3791 24.0914 23.2263 23.5175C24.5928 22.5883 26.055 21.7684 27.5718 21.0851ZM12.3625 36.718C13.5651 33.8757 15.1912 31.252 17.159 28.9425C18.7851 30.0768 20.507 31.088 22.3107 31.9625C22.1604 32.4272 22.0238 32.8918 21.9008 33.3564C20.8212 37.1963 20.138 41.4188 19.9467 45.8737H10.1214C10.3811 42.6487 11.16 39.5604 12.3625 36.718ZM10.1214 50.8751H19.9467C20.1107 54.6603 20.6299 58.2543 21.4362 61.6159C21.6958 62.6954 21.9965 63.7613 22.3107 64.7862C20.4933 65.6608 18.7715 66.672 17.159 67.8062C16.4347 66.959 15.7651 66.0707 15.1366 65.1552C12.3352 61.0146 10.5451 56.1362 10.1214 50.8751ZM52.3741 75.7047C52.4834 75.5407 52.6064 75.3904 52.7157 75.2264C53.8909 73.5182 54.9568 71.5778 55.8997 69.4733C57.0475 70.0609 58.1681 70.7032 59.2203 71.4001C58.4414 72.0561 57.6215 72.671 56.7742 73.2449C55.3804 74.1878 53.9182 75.0077 52.3741 75.7047ZM67.638 60.0444C66.4355 62.8867 64.8093 65.4968 62.8415 67.8199C61.2154 66.6857 59.4799 65.6744 57.6625 64.7862C57.7991 64.3353 57.9494 63.8706 58.0724 63.3924C59.152 59.5525 59.8352 55.3299 60.0265 50.8751H69.8791C69.6195 54.1001 68.8405 57.1884 67.638 60.0444Z" fill="black"/>
<path d="M3.34246 76.3065L9.41102 80.5697L8.43846 81.9541C8.30196 82.1484 8.13929 82.2103 7.95043 82.1398C7.82684 82.0944 7.70258 82.0279 7.57767 81.9401L8.2518 80.7814L6.4406 79.509L2.3968 85.2653L3.18566 85.9127C2.94942 86.3375 2.67863 86.4427 2.3733 86.2282L0 84.5609L0.0584999 84.4777C0.287624 84.1515 0.547256 84.0696 0.837395 84.232L1.29962 84.5256L5.35804 78.7485L3.53643 77.4688L2.68535 78.5033C2.40083 78.3034 2.26044 78.127 2.26417 77.9742C2.26641 77.8825 2.30165 77.7881 2.3699 77.6909L3.34246 76.3065Z" fill="black"/>
<path d="M7.20711 89.296L7.27452 89.1591C7.3569 88.9917 7.43403 88.8926 7.5059 88.8618C7.57777 88.831 7.63641 88.8079 7.68183 88.7924C7.77652 88.7728 7.87714 88.7893 7.98366 88.8417L8.39437 89.0155L11.5401 82.6239L10.7406 82.1454C10.9351 81.7118 11.1693 81.5624 11.4433 81.6972L14.0227 82.9667C15.8261 83.8543 16.4019 84.96 15.7503 86.284C15.4619 86.8699 15.0435 87.2689 14.4948 87.4809C13.9462 87.693 13.3129 87.7026 12.5949 87.5099C12.6058 88.6401 12.7349 89.578 12.9823 90.3236C13.2297 91.0692 13.5703 91.5487 14.004 91.7622C13.8539 92.0097 13.6501 92.174 13.3927 92.2553C13.1467 92.3327 12.8753 92.2984 12.5785 92.1523C12.2894 92.01 12.0462 91.6399 11.849 91.0419C11.4854 89.9177 11.3881 88.6079 11.5569 87.1125C11.2982 86.9852 11.1023 86.884 10.9691 86.809L9.60402 89.5825L10.4948 90.106C10.3194 90.5584 10.0681 90.7041 9.74091 90.5431L7.20711 89.296ZM12.7666 83.1567L11.2836 86.1698C11.3788 86.2261 11.5139 86.2973 11.6889 86.3835C13.0129 87.0351 13.9351 86.8321 14.4557 85.7744C14.9612 84.7472 14.6378 83.9831 13.4855 83.4821L12.7894 83.1679L12.7666 83.1567Z" fill="black"/>
<path d="M23.2757 95.6922L20.6251 94.8768L20.6551 94.7795C20.7723 94.3986 20.9939 94.2405 21.32 94.3053L21.753 94.4119L21.8165 92.3019L19.4821 91.5838L18.3318 93.3328L19.2699 93.7012C19.1764 94.1782 18.9472 94.3606 18.5825 94.2484L16.2602 93.534L16.2901 93.4367C16.4073 93.0557 16.629 92.8977 16.9551 92.9625L17.4367 93.084L22.094 86.2517C22.412 86.314 22.7646 86.4225 23.1518 86.5771L23.1466 94.814L23.951 95.1413C23.8575 95.6183 23.6324 95.8019 23.2757 95.6922ZM19.9132 90.9178L21.8343 91.5088L21.9304 87.865L19.9132 90.9178Z" fill="black"/>
<path d="M33.4871 88.6898L35.7181 88.9943C35.7181 88.9943 35.7135 89.0279 35.7043 89.0951C35.6504 89.49 35.4531 89.6814 35.1124 89.6691L34.819 89.6547L31.0156 97.1086L29.9694 96.9658L28.4379 88.8094L27.692 88.6306C27.707 88.1447 27.8993 87.927 28.269 87.9775L30.9537 88.344L30.9399 88.4448C30.9124 88.6465 30.8641 88.7811 30.7949 88.8487C30.6673 88.9682 30.5226 89.0255 30.3606 89.0205L29.9034 88.9838L30.9637 95.4196L33.8577 89.5492L32.9101 89.3428C32.9132 89.2576 32.9204 89.173 32.9319 89.089C32.9518 89.0061 33.007 88.9152 33.0975 88.8163C33.1976 88.7102 33.3275 88.668 33.4871 88.6898Z" fill="black"/>
<path d="M37.9264 97.7397L37.9234 97.5871C37.9198 97.4006 37.9428 97.2771 37.9926 97.2168C38.0423 97.1565 38.0838 97.109 38.117 97.0744C38.1922 97.0136 38.2891 96.982 38.4078 96.9797L38.8525 96.9457L38.7149 89.8487L37.7977 89.7901C37.7375 89.3078 37.8981 89.0629 38.2797 89.0555L43.7741 88.949L43.8104 90.8187C43.8171 91.1663 43.5783 91.3194 43.094 91.2779L42.9507 89.792L40.0502 89.8101L40.113 93.0533L42.4488 92.779C42.5402 93.1165 42.5517 93.4938 42.4835 93.9107L40.1278 93.8164L40.1875 96.8943L43.3015 96.7322L43.3874 95.2546C43.8613 95.1945 44.1015 95.3341 44.108 95.6732L44.1458 97.6192L37.9264 97.7397Z" fill="black"/>
<path d="M53.4776 94.2293L53.8216 96.2741L47.7625 97.2934L47.7456 97.193C47.6795 96.7999 47.8067 96.5592 48.1272 96.4709L48.5621 96.372L47.3845 89.372L46.4812 89.4466C46.3494 88.97 46.4675 88.7007 46.8355 88.6388L49.6957 88.1576L49.7104 88.2454C49.7611 88.5465 49.707 88.762 49.5483 88.8919C49.487 88.9366 49.4146 88.966 49.3309 88.9801L48.71 89.1232L48.6975 89.1253L49.8751 96.1253L52.7853 95.5583L52.6908 93.923C53.1591 93.7927 53.4213 93.8947 53.4776 94.2293Z" fill="black"/>
<path d="M62.6301 91.5387L63.2705 93.5109L57.4266 95.4083L57.3951 95.3115C57.272 94.9324 57.3625 94.6757 57.6666 94.5413L58.0823 94.3796L55.8902 87.6282L55.0075 87.8346C54.8072 87.3824 54.8845 87.0988 55.2395 86.9835L57.9981 86.0878L58.0256 86.1725C58.1199 86.4629 58.098 86.684 57.9601 86.8358C57.906 86.889 57.8386 86.9287 57.758 86.9549L57.1648 87.1876L57.1527 87.1915L59.3448 93.9429L62.1404 92.9549L61.8069 91.3512C62.251 91.1536 62.5254 91.2161 62.6301 91.5387Z" fill="black"/>
<path d="M66.7094 92.1254L66.6415 91.9887C66.5584 91.8216 66.5265 91.7002 66.5456 91.6244C66.5648 91.5486 66.582 91.4879 66.5973 91.4425C66.6392 91.3553 66.7133 91.2853 66.8197 91.2325L67.207 91.0116L64.0479 84.655L63.1937 84.9943C62.933 84.5841 62.9735 84.294 63.3153 84.1242L68.2365 81.6784L69.0687 83.3529C69.2235 83.6643 69.0731 83.9048 68.6176 84.0743L67.8526 82.7925L65.2383 84.0491L66.682 86.954L68.6762 85.7072C68.9031 85.9733 69.0749 86.3093 69.1915 86.7154L67.0217 87.6375L68.3918 90.3943L71.1375 88.9161L70.5833 87.5437C70.9859 87.2868 71.2627 87.3102 71.4137 87.614L72.2799 89.3569L66.7094 92.1254Z" fill="black"/>
<path d="M75.4125 87.5298L75.3247 87.4049C75.2175 87.2522 75.1676 87.137 75.1751 87.0592C75.1826 86.9814 75.1905 86.9188 75.1988 86.8716C75.2271 86.7791 75.2898 86.6987 75.387 86.6305L75.7367 86.3537L71.6417 80.5246L70.838 80.9959C70.5511 80.6171 70.5325 80.3399 70.7824 80.1644L73.1348 78.5118C74.7795 77.3564 76.026 77.3825 76.8742 78.5899C77.2496 79.1243 77.3985 79.683 77.321 80.266C77.2434 80.849 76.9477 81.4092 76.4338 81.9464C77.4303 82.4797 78.3149 82.8169 79.0877 82.958C79.8606 83.0992 80.4447 83.0308 80.8403 82.7529C80.9852 83.0035 81.0315 83.2611 80.9792 83.5259C80.9289 83.7789 80.7684 84.0005 80.4978 84.1906C80.2341 84.3758 79.7926 84.4113 79.1734 84.297C78.0127 84.076 76.8172 83.5322 75.5867 82.6658C75.3508 82.8316 75.1679 82.9549 75.0381 83.0357L76.815 85.5651L77.7021 85.0353C78.0146 85.4064 78.0217 85.6968 77.7233 85.9065L75.4125 87.5298ZM72.6981 79.7047L74.6286 82.4528C74.7237 82.3963 74.851 82.312 75.0106 82.1999C76.2181 81.3517 76.483 80.4453 75.8054 79.4807C75.1473 78.5438 74.3218 78.4605 73.3288 79.2305L72.7189 79.6901L72.6981 79.7047Z" fill="black"/>
<path d="M15.4567 15.7194L15.3847 15.5847C15.2968 15.4202 15.2612 15.2997 15.2781 15.2234C15.295 15.1471 15.3104 15.0859 15.3244 15.04C15.3637 14.9517 15.4357 14.8795 15.5404 14.8236L15.9211 14.5912L12.5747 8.3312L11.731 8.69567C11.4582 8.29335 11.4901 8.00223 11.8267 7.82232L16.6732 5.2316L17.5547 6.88075C17.7187 7.1874 17.5755 7.43222 17.1252 7.61524L16.3225 6.35662L13.7467 7.69029L15.2759 10.5511L17.2322 9.24567C17.4669 9.50485 17.6486 9.83568 17.7772 10.2381L15.6358 11.2242L17.087 13.9391L19.7876 12.3801L19.193 11.0247C19.5878 10.756 19.8652 10.7712 20.0251 11.0703L20.9426 12.7868L15.4567 15.7194Z" fill="black"/>
<path d="M31.5941 9.39332L28.9121 10.0986L28.8862 10.0002C28.7849 9.61468 28.8898 9.36347 29.201 9.24655L29.6252 9.10872L28.5662 7.28263L26.2041 7.90378L26.1493 9.99643L27.1407 9.81467C27.3128 10.2692 27.2143 10.545 26.8453 10.6421L24.4954 11.26L24.4695 11.1616C24.3682 10.7761 24.4731 10.5249 24.7844 10.408L25.2577 10.2572L25.6108 1.99605C25.9138 1.88128 26.2706 1.78746 26.6811 1.71459L31.0212 8.7153L31.8772 8.56912C32.0494 9.02369 31.955 9.29842 31.5941 9.39332ZM26.2191 7.11062L28.163 6.59946L26.3227 3.45301L26.2191 7.11062Z" fill="black"/>
<path d="M36.098 8.74655L36.0953 8.59392C36.0921 8.40737 36.1153 8.28398 36.1652 8.22373C36.215 8.16348 36.2566 8.1161 36.2899 8.08159C36.3652 8.0209 36.4622 7.98951 36.5809 7.98743L37.0256 7.95418L36.9007 0.831518L35.9709 0.771484C35.9456 0.296937 36.0856 0.0569876 36.3908 0.0516352L39.2654 0.00123287C41.275 -0.0340042 42.2927 0.686082 42.3186 2.16149C42.33 2.8144 42.1403 3.36058 41.7493 3.80001C41.3584 4.23945 40.7996 4.53763 40.0729 4.69457C40.5993 5.69469 41.143 6.46974 41.704 7.01971C42.265 7.56969 42.7871 7.84044 43.2704 7.83196C43.2501 8.12071 43.144 8.36006 42.9522 8.55003C42.7688 8.73137 42.5117 8.82493 42.1811 8.83073C41.8588 8.83638 41.4733 8.61837 41.0245 8.17669C40.1871 7.34318 39.5017 6.22286 38.9681 4.81572C38.6798 4.82078 38.4592 4.8204 38.3065 4.8146L38.3607 7.90533L39.3922 7.96358C39.4431 8.44616 39.2862 8.69065 38.9216 8.69704L36.098 8.74655ZM38.2351 0.744506L38.294 4.10233C38.4044 4.10888 38.5571 4.11044 38.7521 4.10702C40.2275 4.08115 40.9549 3.4789 40.9342 2.30027C40.9141 1.15556 40.2771 0.623881 39.0232 0.705241L38.2605 0.74406L38.2351 0.744506Z" fill="black"/>
<path d="M48.6604 0.498678L55.904 2.08987L55.541 3.74237C55.4901 3.9743 55.3639 4.09419 55.1625 4.10203C55.0309 4.10787 54.8906 4.09442 54.7415 4.06167L54.9163 2.7325L52.7544 2.2576L51.2451 9.12849L52.2227 9.42139C52.1687 9.90444 51.9594 10.1059 51.595 10.0259L48.7621 9.4036L48.7839 9.3042C48.8695 8.91489 49.0774 8.73915 49.4077 8.77698L49.9474 8.86949L51.4622 1.97375L49.2879 1.49612L48.9019 2.77888C48.5623 2.70428 48.3647 2.59576 48.3092 2.45332C48.2758 2.36785 48.2719 2.26714 48.2974 2.15117L48.6604 0.498678Z" fill="black"/>
<path d="M64.7982 15.3733L62.3681 14.1464L62.414 14.0556C62.5057 13.8739 62.5952 13.7624 62.6826 13.721C62.8422 13.6495 63.0015 13.6445 63.1606 13.7058L63.5695 13.8837L64.9856 11.0788L61.5107 9.32449L60.1061 12.1067L60.9007 12.5933C60.7282 13.0478 60.4717 13.189 60.131 13.017L57.7122 11.7958L57.7581 11.705C57.9377 11.3492 58.1828 11.2307 58.4933 11.3494L58.9022 11.5274L62.1014 5.19085L61.3181 4.70993C61.4906 4.25547 61.7433 4.11233 62.0764 4.2805L64.5066 5.5074L64.4607 5.59825C64.2811 5.95406 64.036 6.07258 63.7255 5.9538L63.3052 5.77012L61.8604 8.63179L65.3353 10.3861L66.7686 7.54718L65.9854 7.06626C66.1578 6.6118 66.4106 6.46866 66.7437 6.63683L69.1625 7.858L69.1166 7.94884C68.937 8.30466 68.6919 8.42318 68.3813 8.3044L67.9724 8.12645L64.7733 14.463L65.5565 14.9439C65.3841 15.3984 65.1313 15.5415 64.7982 15.3733Z" fill="black"/>
</svg>
