<svg width="120" height="145" viewBox="0 0 120 145" fill="none" xmlns="http://www.w3.org/2000/svg">
<path d="M106.674 51.3216C102.758 42.0381 96.1994 34.1672 87.9653 28.5971C79.711 23.0269 69.7614 19.7777 59.0652 19.7777C51.941 19.7777 45.1398 21.2308 38.9441 23.8342C29.6605 27.7495 21.7896 34.3085 16.2195 42.5426C10.6494 50.7969 7.40014 60.7465 7.40014 71.4427C7.40014 78.5668 8.85321 85.3681 11.4566 91.5638C15.3719 100.847 21.9309 108.718 30.165 114.288C38.4193 119.858 48.3487 123.108 59.0248 123.108H59.045C59.045 123.108 59.045 123.108 59.0652 123.108C66.1893 123.108 72.9905 121.655 79.1863 119.051C88.4698 115.136 96.3407 108.577 101.911 100.343C107.481 92.0886 110.73 82.139 110.73 71.4427C110.73 64.3186 109.277 57.5174 106.674 51.3216ZM103.202 67.7495H88.6515C88.4093 62.1592 87.6424 56.8514 86.4517 51.8867C86.0682 50.2924 85.6242 48.7182 85.16 47.2046C87.8442 45.8928 90.3871 44.3993 92.7887 42.7242C93.8583 43.9755 94.8674 45.2873 95.7958 46.6597C99.933 52.7949 102.577 59.9795 103.202 67.7495ZM78.3184 92.8756C73.4143 91.2207 68.1873 90.1915 62.7584 89.8686V75.136H81.3053C81.0833 80.1208 80.377 84.8635 79.3073 89.2429C79.0046 90.4942 78.6817 91.6849 78.3184 92.8756ZM39.4688 91.6244C38.0561 86.5991 37.1277 81.029 36.8452 75.136H55.3719V89.8686C49.9431 90.1915 44.7362 91.2409 39.832 92.8756C39.711 92.4518 39.5899 92.0482 39.4688 91.6244ZM39.832 50.0098C44.7362 51.6647 49.9431 52.694 55.3719 53.0169V67.7495H36.8452C37.0672 62.7646 37.7735 58.0219 38.8431 53.6425C39.1459 52.4114 39.4688 51.2005 39.832 50.0098ZM62.7584 27.9311C63.828 28.3549 64.8977 28.9604 66.0076 29.7676C67.9854 31.2207 69.9632 33.3196 71.7998 35.9836C73.2327 38.0421 74.5445 40.4437 75.7352 43.0875C71.6383 44.4397 67.2791 45.3277 62.7584 45.6304V27.9311ZM82.153 39.3741C80.8412 36.5285 79.3477 33.925 77.7332 31.584C77.6323 31.4225 77.5112 31.2812 77.4103 31.1198C81.043 32.7747 84.4335 34.9139 87.4607 37.4366C85.9068 38.4659 84.272 39.4144 82.5566 40.2621C82.4153 39.9795 82.2942 39.6768 82.153 39.3741ZM46.4516 35.8221C48.49 32.916 50.6898 30.696 52.8492 29.2631C53.717 28.698 54.5445 28.254 55.3719 27.9109V45.6506C50.831 45.3479 46.492 44.48 42.3951 43.1077C42.496 42.9059 42.5768 42.6839 42.6777 42.4821C43.828 39.9997 45.0995 37.7596 46.4516 35.8221ZM55.3719 97.2349V114.954C54.3225 114.531 53.2327 113.925 52.1428 113.118C50.165 111.665 48.1872 109.566 46.3507 106.902C44.9178 104.843 43.5858 102.462 42.3951 99.7778C46.492 98.4256 50.831 97.5578 55.3719 97.2349ZM35.9572 103.511C37.269 106.357 38.7624 108.96 40.3769 111.301C40.4779 111.463 40.5989 111.604 40.6999 111.766C37.0672 110.111 33.6968 107.972 30.6696 105.449C32.2236 104.42 33.8583 103.491 35.5535 102.623C35.6948 102.926 35.8159 103.229 35.9572 103.511ZM71.6989 107.063C69.6605 109.969 67.4607 112.189 65.3013 113.622C64.4335 114.208 63.5858 114.652 62.7584 114.975V97.2349C67.2993 97.5376 71.6585 98.4256 75.7554 99.7778C75.6545 99.9796 75.5737 100.202 75.4728 100.403C74.3225 102.886 73.051 105.126 71.6989 107.063ZM62.7584 67.7495V53.0169C68.1873 52.694 73.4143 51.6445 78.3184 50.0098C78.4395 50.4134 78.5606 50.8373 78.6817 51.2611C80.0944 56.2863 81.0228 61.8564 81.3053 67.7495H62.7584ZM40.72 31.14C40.5586 31.362 40.4173 31.584 40.2559 31.7858C38.5202 34.3085 36.9461 37.1541 35.5535 40.2621C33.8583 39.4144 32.2437 38.4659 30.6898 37.4568C31.8401 36.4881 33.051 35.5799 34.3023 34.7323C36.3204 33.36 38.4799 32.1491 40.72 31.14ZM18.2579 54.2278C20.0338 50.03 22.4355 46.1551 25.3416 42.7444C27.7432 44.4195 30.2861 45.9129 32.9501 47.2046C32.7281 47.8907 32.5263 48.5769 32.3447 49.2631C30.7503 54.9341 29.7412 61.1703 29.4587 67.7495H14.9481C15.3315 62.9866 16.4819 58.4256 18.2579 54.2278ZM14.9481 75.136H29.4587C29.7009 80.7263 30.4678 86.0341 31.6585 90.9987C32.0419 92.5931 32.4859 94.1673 32.9501 95.6809C30.2659 96.9725 27.7231 98.466 25.3416 100.141C24.272 98.8898 23.2831 97.578 22.3547 96.2258C18.2175 90.1107 15.5737 82.9059 14.9481 75.136ZM77.3497 111.806C77.5112 111.564 77.6928 111.342 77.8543 111.1C79.5899 108.577 81.1641 105.711 82.5566 102.603C84.2519 103.471 85.9068 104.42 87.4607 105.449C86.3104 106.418 85.0995 107.326 83.8482 108.173C81.7897 109.566 79.6303 110.777 77.3497 111.806ZM99.8926 88.6778C98.1166 92.8756 95.715 96.7303 92.8089 100.161C90.4073 98.4861 87.8442 96.9927 85.16 95.6809C85.3618 95.0149 85.5838 94.3287 85.7655 93.6224C87.3598 87.9513 88.3689 81.7152 88.6515 75.136H103.202C102.819 79.8988 101.669 84.4599 99.8926 88.6778Z" fill="white"/>
<path d="M4.93638 112.695L13.8989 118.991L12.4625 121.036C12.2609 121.323 12.0207 121.414 11.7418 121.31C11.5592 121.243 11.3757 121.145 11.1912 121.015L12.1868 119.304L9.51194 117.425L3.53976 125.926L4.70481 126.882C4.35592 127.509 3.956 127.665 3.50506 127.348L0 124.886L0.0863968 124.763C0.424784 124.281 0.808227 124.16 1.23673 124.4L1.91937 124.833L7.91314 116.301L5.22286 114.411L3.96592 115.939C3.54572 115.644 3.33837 115.384 3.34388 115.158C3.34719 115.022 3.39924 114.883 3.50004 114.739L4.93638 112.695Z" fill="white"/>
<path d="M10.644 131.879L10.7435 131.676C10.8652 131.429 10.9791 131.283 11.0853 131.237C11.1914 131.192 11.278 131.158 11.3451 131.135C11.4849 131.106 11.6335 131.13 11.7908 131.208L12.3974 131.464L17.0433 122.025L15.8625 121.318C16.1498 120.678 16.4957 120.457 16.9002 120.656L20.7098 122.531C23.3731 123.842 24.2235 125.475 23.2612 127.43C22.8353 128.296 22.2172 128.885 21.407 129.198C20.5968 129.511 19.6614 129.525 18.601 129.241C18.6171 130.91 18.8078 132.295 19.1732 133.396C19.5386 134.497 20.0416 135.206 20.6821 135.521C20.4604 135.886 20.1594 136.129 19.7793 136.249C19.4159 136.364 19.0151 136.313 18.5768 136.097C18.1498 135.887 17.7907 135.34 17.4995 134.457C16.9625 132.797 16.8187 130.862 17.0681 128.654C16.686 128.466 16.3966 128.316 16.1999 128.206L14.1839 132.302L15.4995 133.075C15.2404 133.743 14.8693 133.958 14.3861 133.72L10.644 131.879ZM18.8547 122.812L16.6645 127.262C16.805 127.345 17.0045 127.45 17.263 127.577C19.2183 128.54 20.5804 128.24 21.3492 126.678C22.0958 125.161 21.6182 124.032 19.9163 123.292L18.8884 122.828L18.8547 122.812Z" fill="white"/>
<path d="M34.3752 141.325L30.4607 140.121L30.5049 139.977C30.678 139.415 31.0053 139.181 31.4869 139.277L32.1264 139.434L32.2202 136.318L28.7725 135.257L27.0737 137.84L28.4591 138.385C28.321 139.089 27.9826 139.358 27.4439 139.193L24.0142 138.138L24.0584 137.994C24.2315 137.431 24.5588 137.198 25.0404 137.294L25.7518 137.473L32.63 127.383C33.0997 127.475 33.6204 127.635 34.1923 127.863L34.1846 140.028L35.3725 140.511C35.2344 141.216 34.902 141.487 34.3752 141.325ZM29.4092 134.274L32.2464 135.147L32.3884 129.765L29.4092 134.274Z" fill="white"/>
<path d="M49.4562 130.983L52.751 131.433C52.751 131.433 52.7442 131.483 52.7306 131.582C52.651 132.165 52.3596 132.448 51.8565 132.43L51.4233 132.409L45.806 143.417L44.261 143.206L41.9991 131.16L40.8975 130.896C40.9196 130.178 41.2037 129.857 41.7497 129.931L45.7146 130.473L45.6943 130.622C45.6536 130.919 45.5823 131.118 45.4801 131.218C45.2917 131.395 45.0779 131.479 44.8387 131.472L44.1635 131.418L45.7293 140.922L50.0035 132.253L48.604 131.948C48.6085 131.822 48.6192 131.697 48.6362 131.573C48.6655 131.451 48.7471 131.316 48.8808 131.17C49.0286 131.013 49.2204 130.951 49.4562 130.983Z" fill="white"/>
<path d="M56.0124 144.349L56.008 144.124C56.0026 143.848 56.0367 143.666 56.1101 143.577C56.1836 143.488 56.2448 143.417 56.294 143.366C56.405 143.277 56.5481 143.23 56.7234 143.227L57.3801 143.176L57.177 132.695L55.8224 132.608C55.7334 131.896 55.9707 131.534 56.5342 131.524L64.6488 131.366L64.7023 134.128C64.7122 134.641 64.3596 134.867 63.6444 134.806L63.4327 132.611L59.1489 132.638L59.2418 137.428L62.6914 137.023C62.8263 137.521 62.8434 138.078 62.7426 138.694L59.2636 138.555L59.3517 143.1L63.9508 142.861L64.0776 140.679C64.7774 140.59 65.1322 140.796 65.1419 141.297L65.1976 144.171L56.0124 144.349Z" fill="white"/>
<path d="M78.9796 139.165L79.4876 142.184L70.5391 143.69L70.5141 143.542C70.4165 142.961 70.6043 142.606 71.0777 142.475L71.7199 142.329L69.9808 131.991L68.6467 132.101C68.4521 131.397 68.6265 131 69.1699 130.908L73.3941 130.197L73.4159 130.327C73.4907 130.772 73.4109 131.09 73.1764 131.282C73.0859 131.348 72.9789 131.391 72.8554 131.412L71.9384 131.624L71.9199 131.627L73.659 141.965L77.9571 141.127L77.8175 138.712C78.5091 138.52 78.8964 138.67 78.9796 139.165Z" fill="white"/>
<path d="M92.4966 135.191L93.4423 138.104L84.8116 140.906L84.7652 140.763C84.5834 140.203 84.7171 139.824 85.1662 139.625L85.78 139.386L82.5426 129.416L81.2391 129.72C80.9432 129.053 81.0574 128.634 81.5816 128.463L85.6557 127.141L85.6963 127.266C85.8355 127.695 85.8033 128.021 85.5995 128.245C85.5197 128.324 85.4202 128.382 85.3011 128.421L84.4251 128.765L84.4072 128.771L87.6447 138.742L91.7733 137.282L91.2808 134.914C91.9367 134.622 92.3419 134.714 92.4966 135.191Z" fill="white"/>
<path d="M98.5212 136.057L98.4209 135.855C98.2982 135.609 98.2511 135.429 98.2794 135.317C98.3076 135.205 98.333 135.116 98.3556 135.049C98.4175 134.92 98.527 134.817 98.684 134.739L99.2562 134.412L94.5905 125.025L93.329 125.526C92.9439 124.92 93.0038 124.491 93.5085 124.241L100.776 120.628L102.006 123.102C102.234 123.561 102.012 123.917 101.339 124.167L100.21 122.274L96.3486 124.13L98.4808 128.42L101.426 126.579C101.761 126.971 102.015 127.468 102.187 128.068L98.9825 129.429L101.006 133.501L105.061 131.318L104.242 129.291C104.837 128.911 105.246 128.946 105.469 129.395L106.748 131.969L98.5212 136.057Z" fill="white"/>
<path d="M111.375 129.27L111.245 129.086C111.087 128.86 111.013 128.69 111.024 128.575C111.035 128.46 111.047 128.368 111.059 128.298C111.101 128.162 111.193 128.043 111.337 127.942L111.853 127.533L105.806 118.924L104.619 119.621C104.195 119.061 104.167 118.652 104.536 118.393L108.011 115.952C110.44 114.245 112.281 114.284 113.533 116.067C114.088 116.856 114.308 117.681 114.193 118.543C114.079 119.404 113.642 120.231 112.883 121.024C114.355 121.812 115.661 122.31 116.802 122.518C117.944 122.727 118.807 122.626 119.391 122.215C119.605 122.585 119.673 122.966 119.596 123.357C119.522 123.731 119.285 124.058 118.885 124.339C118.495 124.612 117.843 124.665 116.929 124.496C115.215 124.169 113.449 123.366 111.632 122.087C111.283 122.332 111.013 122.514 110.822 122.633L113.446 126.369L114.756 125.586C115.218 126.134 115.228 126.563 114.787 126.873L111.375 129.27ZM107.366 117.714L110.217 121.772C110.357 121.689 110.545 121.564 110.781 121.399C112.564 120.146 112.956 118.807 111.955 117.383C110.983 115.999 109.764 115.876 108.297 117.013L107.396 117.692L107.366 117.714Z" fill="white"/>
<path d="M22.8276 23.2155L22.7213 23.0166C22.5914 22.7736 22.5389 22.5958 22.5638 22.483C22.5888 22.3703 22.6115 22.28 22.6321 22.2122C22.6902 22.0817 22.7965 21.9752 22.9512 21.8925L23.5134 21.5494L18.5712 12.3041L17.3252 12.8424C16.9223 12.2482 16.9694 11.8183 17.4665 11.5526L24.6241 7.7264L25.9261 10.162C26.1682 10.6149 25.9567 10.9764 25.2917 11.2467L24.1063 9.38791L20.3021 11.3576L22.5606 15.5826L25.4498 13.6547C25.7964 14.0374 26.0647 14.526 26.2546 15.1204L23.092 16.5767L25.2354 20.5863L29.2238 18.2838L28.3455 16.2821C28.9287 15.8852 29.3383 15.9076 29.5745 16.3495L30.9296 18.8845L22.8276 23.2155Z" fill="white"/>
<path d="M46.6604 13.8727L42.6995 14.9143L42.6612 14.769C42.5115 14.1996 42.6665 13.8286 43.1262 13.656L43.7526 13.4524L42.1886 10.7555L38.7001 11.6729L38.6192 14.7634L40.0832 14.495C40.3375 15.1663 40.1921 15.5737 39.647 15.717L36.1766 16.6296L36.1384 16.4842C35.9887 15.9149 36.1436 15.5439 36.6033 15.3713L37.3024 15.1486L37.8238 2.94791C38.2714 2.77841 38.7983 2.63985 39.4046 2.53222L45.8143 12.8714L47.0785 12.6555C47.3328 13.3268 47.1934 13.7326 46.6604 13.8727ZM38.7223 10.5015L41.5931 9.74655L38.8753 5.09965L38.7223 10.5015Z" fill="white"/>
<path d="M53.3121 12.9175L53.3081 12.6921C53.3033 12.4166 53.3377 12.2344 53.4113 12.1454C53.4849 12.0564 53.5463 11.9864 53.5955 11.9355C53.7067 11.8458 53.8499 11.7995 54.0253 11.7964L54.6821 11.7473L54.4976 1.22804L53.1244 1.13938C53.087 0.438538 53.2938 0.0841634 53.7446 0.0762585L57.9899 0.00182079C60.9578 -0.0502198 62.4609 1.01325 62.4991 3.19224C62.516 4.15651 62.2358 4.96314 61.6584 5.61213C61.081 6.26112 60.2557 6.7015 59.1824 6.93327C59.9599 8.41033 60.7629 9.55497 61.5914 10.3672C62.4199 11.1795 63.1911 11.5793 63.9049 11.5668C63.8748 11.9932 63.7181 12.3467 63.4349 12.6273C63.164 12.8951 62.7844 13.0333 62.296 13.0419C61.8201 13.0502 61.2508 12.7282 60.5879 12.0759C59.3512 10.8449 58.3389 9.19036 57.5508 7.1122C57.1251 7.11967 56.7994 7.11912 56.5737 7.11055L56.6538 11.6752L58.1773 11.7612C58.2524 12.4739 58.0207 12.835 57.4822 12.8444L53.3121 12.9175ZM56.4683 1.09954L56.5553 6.05862C56.7183 6.06829 56.9438 6.0706 57.2318 6.06555C59.4108 6.02734 60.4851 5.13789 60.4545 3.39721C60.4249 1.70661 59.4841 0.921391 57.6323 1.04155L56.5059 1.09888L56.4683 1.09954Z" fill="white"/>
<path d="M71.8651 0.736484L82.5631 3.08648L82.027 5.527C81.9517 5.86952 81.7654 6.04658 81.4679 6.05818C81.2736 6.0668 81.0664 6.04693 80.8462 5.99856L81.1043 4.03555L77.9114 3.33418L75.6824 13.4816L77.1262 13.9142C77.0464 14.6276 76.7374 14.9252 76.1991 14.8069L72.0154 13.8879L72.0476 13.7411C72.1739 13.1661 72.481 12.9066 72.9688 12.9625L73.7659 13.0991L76.0031 2.91497L72.7918 2.20957L72.2218 4.10405C71.7202 3.99388 71.4285 3.8336 71.3464 3.62323C71.2972 3.49701 71.2914 3.34827 71.329 3.177L71.8651 0.736484Z" fill="white"/>
<path d="M95.6986 22.7044L92.1096 20.8925L92.1774 20.7583C92.3128 20.49 92.4451 20.3252 92.5742 20.2641C92.8098 20.1586 93.0451 20.1511 93.28 20.2417L93.884 20.5045L95.9753 16.362L90.8434 13.7711L88.7689 17.88L89.9424 18.5987C89.6878 19.2699 89.3089 19.4785 88.8057 19.2244L85.2335 17.4209L85.3012 17.2868C85.5665 16.7613 85.9285 16.5863 86.3871 16.7617L86.991 17.0245L91.7157 7.66621L90.559 6.95595C90.8137 6.28478 91.187 6.07338 91.6789 6.32175L95.2679 8.13372L95.2002 8.26789C94.9349 8.79338 94.5729 8.96842 94.1143 8.793L93.4936 8.52172L91.3599 12.748L96.4918 15.339L98.6086 11.1462L97.4519 10.436C97.7066 9.76478 98.0799 9.55338 98.5718 9.80175L102.144 11.6053L102.076 11.7394C101.811 12.2649 101.449 12.4399 100.99 12.2645L100.387 12.0017L95.6618 21.36L96.8186 22.0702C96.5639 22.7414 96.1906 22.9528 95.6986 22.7044Z" fill="white"/>
</svg>
