<svg width="166.0978045405763" height="240.23959350585938" viewBox="0 0 190.47619047619048 275.49986406572805" class="css-1j8o68f" fill="none" xmlns="http://www.w3.org/2000/svg"><defs id="SvgjsDefs3020"></defs><g id="SvgjsG3021" featurekey="MI9fam-0" transform="matrix(7.638133629227096,0,0,7.638133629227096,-27.264030405683194,-22.049149025714307)" fill="white"><path xmlns="http://www.w3.org/2000/svg" d="M21.45,3.824c0.037-0.32-0.116-0.647-0.415-0.81l-0.051-0.028c-0.393-0.215-0.891-0.069-1.105,0.324l-0.802,1.466  c-0.788-0.348-1.628-0.608-2.52-0.742C11.148,3.222,6.071,6.956,5.254,12.37c-0.396,2.623,0.252,5.244,1.826,7.378  c0.7,0.95,1.553,1.744,2.508,2.378l-0.8,1.462c-0.215,0.393-0.069,0.89,0.324,1.105l0.051,0.028  c0.299,0.163,0.656,0.116,0.906-0.087c0.747,0.346,1.523,0.62,2.326,0.804c-1.237,0.51-2.27,1.276-2.934,2.247  c-0.105,0.152-0.117,0.352-0.03,0.516s0.257,0.267,0.442,0.267h12.254c0.186,0,0.355-0.103,0.442-0.267s0.075-0.363-0.03-0.516  c-0.804-1.175-2.142-2.056-3.739-2.536c1.179-0.39,2.302-0.969,3.33-1.727c2.556-1.885,4.225-4.652,4.699-7.792  C27.532,10.988,25.379,6.329,21.45,3.824z M12.677,7.869c0.082,0.097,0.198,0.16,0.324,0.174c1.128,0.13,2.064,0.777,2.638,1.82  c0.622,1.133,0.72,2.555,0.242,3.539c-0.78,1.609-1.497,1.613-3.398,0.802c-0.242-0.104-0.528,0.002-0.646,0.242  c-0.716,1.477-1.769,3.137-2.711,2.68c-0.52-0.252-0.824-0.689-0.907-1.301c-0.084-0.627,0.078-1.402,0.457-2.183  c0.485-1.001,0.256-1.671,0.071-2.209c-0.165-0.481-0.284-0.829,0.029-1.476c0.187-0.381,0.451-0.734,0.787-1.049  c0.112-0.105,0.17-0.256,0.156-0.41S9.621,8.206,9.492,8.122c-0.26-0.168-0.453-0.428-0.575-0.724  c1.091-1.038,2.433-1.797,3.908-2.184c-0.006,0.013-0.009,0.028-0.016,0.041c-0.084,0.173-0.205,0.339-0.372,0.505  c-0.054,0.054-0.095,0.121-0.119,0.193C12.141,6.481,12.045,7.12,12.677,7.869z M7.885,19.155c-1.415-1.921-1.999-4.277-1.643-6.636  c0.25-1.657,0.944-3.14,1.942-4.346c0.091,0.146,0.191,0.285,0.308,0.409C8.244,8.873,8.038,9.187,7.876,9.519  c-0.493,1.019-0.262,1.694-0.076,2.237c0.163,0.475,0.28,0.818-0.025,1.449c-0.47,0.969-0.659,1.921-0.548,2.752  c0.127,0.937,0.646,1.671,1.463,2.068c0.269,0.13,0.536,0.195,0.802,0.195c1.021,0,2.021-0.965,3.033-2.918  c1.667,0.66,3.132,0.852,4.257-1.465c0.611-1.262,0.505-3.053-0.266-4.457c-0.697-1.269-1.822-2.08-3.185-2.302  c-0.168-0.249-0.173-0.442-0.098-0.703c0.203-0.218,0.359-0.444,0.476-0.685c0.1-0.205,0.167-0.436,0.215-0.688  c0.377-0.049,0.757-0.083,1.144-0.083c0.442,0,0.891,0.033,1.34,0.101c2.854,0.432,5.182,2.182,6.479,4.533  c-0.995,0.197-1.849,0.841-2.292,1.754c-0.638,1.317-0.296,2.877,0.758,3.826c-0.157,0.172-0.289,0.365-0.392,0.577  c-0.171,0.354-0.254,0.739-0.243,1.129c-3.426,2.713-3.92,4.24-3.335,5.64c-1.173,0.315-2.407,0.393-3.645,0.205  C11.38,22.329,9.301,21.075,7.885,19.155z M18.329,22.165c-0.343-0.711-0.439-1.855,3.219-4.704c0.143-0.111,0.214-0.29,0.187-0.469  c-0.044-0.291,0-0.582,0.128-0.844c0.122-0.253,0.316-0.463,0.562-0.608c0.153-0.091,0.247-0.256,0.245-0.435  s-0.098-0.342-0.253-0.43c-1.029-0.585-1.434-1.872-0.92-2.93c0.342-0.705,1.046-1.173,1.845-1.24  c0.585,1.437,0.812,3.041,0.564,4.683c-0.356,2.359-1.61,4.438-3.53,5.854C19.736,21.513,19.047,21.882,18.329,22.165z   M10.976,27.468c1.185-1.07,3.043-1.727,5.024-1.727s3.84,0.656,5.024,1.727H10.976z M25.842,15.481  c-0.436,2.876-1.964,5.411-4.305,7.137c-2.341,1.728-5.214,2.438-8.091,2.003c-0.986-0.148-1.938-0.436-2.84-0.842l0.462-0.844  c0.796,0.349,1.639,0.605,2.521,0.738c0.504,0.076,1.006,0.114,1.506,0.114c2.104,0,4.147-0.668,5.873-1.94  c2.136-1.575,3.529-3.887,3.926-6.51c0.595-3.935-1.224-7.68-4.337-9.752l0.466-0.852C24.553,7.044,26.477,11.271,25.842,15.481z"></path></g><g id="SvgjsG3022" featurekey="EI8VXn-0" transform="matrix(1.0339604234829647,0,0,1.0339604234829647,-1.654336702224281,208.81691664785063)" fill="#ffffff"><path d="M1.6 20 l0 -13.86 l9.36 0 l0 2.62 l-6.24 0 l0 2.72 l5.54 0 l0 2.56 l-5.54 0 l0 3.34 l6.7 0 l0 2.62 l-9.82 0 z M23 20 q-0.22 -0.72 -0.49 -1.48 t-0.53 -1.52 l-5.4 0 q-0.26 0.76 -0.53 1.52 t-0.49 1.48 l-3.24 0 q0.78 -2.24 1.48 -4.14 t1.37 -3.58 t1.32 -3.19 t1.35 -2.95 l2.98 0 q0.68 1.44 1.34 2.95 t1.33 3.19 t1.37 3.58 t1.48 4.14 l-3.34 0 z M19.26 9.28 q-0.1 0.3 -0.3 0.82 t-0.46 1.2 t-0.57 1.5 t-0.63 1.72 l3.94 0 q-0.32 -0.9 -0.62 -1.72 t-0.57 -1.5 t-0.47 -1.2 t-0.32 -0.82 z M32.2 5.98 q3.12 0 4.78 1.11 t1.66 3.45 q0 1.46 -0.67 2.37 t-1.93 1.43 q0.42 0.52 0.88 1.19 t0.91 1.4 t0.87 1.52 t0.78 1.55 l-3.5 0 q-0.38 -0.68 -0.77 -1.38 t-0.8 -1.36 t-0.81 -1.25 t-0.8 -1.07 l-1.54 0 l0 5.06 l-3.12 0 l0 -13.66 q1.02 -0.2 2.11 -0.28 t1.95 -0.08 z M32.379999999999995 8.64 q-0.34 0 -0.61 0.02 t-0.51 0.04 l0 3.76 l0.88 0 q1.76 0 2.52 -0.44 t0.76 -1.5 q0 -1.02 -0.77 -1.45 t-2.27 -0.43 z M51.76 6.140000000000001 l0 2.66 l-4.18 0 l0 11.2 l-3.12 0 l0 -11.2 l-4.18 0 l0 -2.66 l11.48 0 z M62.12 6.140000000000001 l3.12 0 l0 13.86 l-3.12 0 l0 -5.88 l-5.24 0 l0 5.88 l-3.12 0 l0 -13.86 l3.12 0 l0 5.3 l5.24 0 l0 -5.3 z M83.52 6.140000000000001 l0 2.66 l-4.18 0 l0 11.2 l-3.12 0 l0 -11.2 l-4.18 0 l0 -2.66 l11.48 0 z M89.58 5.98 q3.12 0 4.78 1.11 t1.66 3.45 q0 1.46 -0.67 2.37 t-1.93 1.43 q0.42 0.52 0.88 1.19 t0.91 1.4 t0.87 1.52 t0.78 1.55 l-3.5 0 q-0.38 -0.68 -0.77 -1.38 t-0.8 -1.36 t-0.81 -1.25 t-0.8 -1.07 l-1.54 0 l0 5.06 l-3.12 0 l0 -13.66 q1.02 -0.2 2.11 -0.28 t1.95 -0.08 z M89.76 8.64 q-0.34 0 -0.61 0.02 t-0.51 0.04 l0 3.76 l0.88 0 q1.76 0 2.52 -0.44 t0.76 -1.5 q0 -1.02 -0.77 -1.45 t-2.27 -0.43 z M108.14 20 q-0.22 -0.72 -0.49 -1.48 t-0.53 -1.52 l-5.4 0 q-0.26 0.76 -0.53 1.52 t-0.49 1.48 l-3.24 0 q0.78 -2.24 1.48 -4.14 t1.37 -3.58 t1.32 -3.19 t1.35 -2.95 l2.98 0 q0.68 1.44 1.34 2.95 t1.33 3.19 t1.37 3.58 t1.48 4.14 l-3.34 0 z M104.4 9.28 q-0.1 0.3 -0.3 0.82 t-0.46 1.2 t-0.57 1.5 t-0.63 1.72 l3.94 0 q-0.32 -0.9 -0.62 -1.72 t-0.57 -1.5 t-0.47 -1.2 t-0.32 -0.82 z M117.4 20 q-0.82 -1.74 -1.62 -3.62 t-1.52 -3.72 t-1.33 -3.52 t-1.05 -3 l3.44 0 q0.4 1.2 0.87 2.59 t0.96 2.77 t0.95 2.64 t0.86 2.18 q0.38 -0.92 0.85 -2.18 t0.96 -2.64 t0.96 -2.77 t0.87 -2.59 l3.32 0 q-0.46 1.32 -1.06 3 t-1.32 3.52 t-1.52 3.72 t-1.62 3.62 l-3 0 z M127.72 20 l0 -13.86 l9.36 0 l0 2.62 l-6.24 0 l0 2.72 l5.54 0 l0 2.56 l-5.54 0 l0 3.34 l6.7 0 l0 2.62 l-9.82 0 z M149.10000000000002 17.32 l0 2.68 l-9.26 0 l0 -13.86 l3.12 0 l0 11.18 l6.14 0 z M160.36 17.32 l0 2.68 l-9.26 0 l0 -13.86 l3.12 0 l0 11.18 l6.14 0 z M162.35999999999999 20 l0 -13.86 l9.36 0 l0 2.62 l-6.24 0 l0 2.72 l5.54 0 l0 2.56 l-5.54 0 l0 3.34 l6.7 0 l0 2.62 l-9.82 0 z M178.54 5.98 q3.12 0 4.78 1.11 t1.66 3.45 q0 1.46 -0.67 2.37 t-1.93 1.43 q0.42 0.52 0.88 1.19 t0.91 1.4 t0.87 1.52 t0.78 1.55 l-3.5 0 q-0.38 -0.68 -0.77 -1.38 t-0.8 -1.36 t-0.81 -1.25 t-0.8 -1.07 l-1.54 0 l0 5.06 l-3.12 0 l0 -13.66 q1.02 -0.2 2.11 -0.28 t1.95 -0.08 z M178.72 8.64 q-0.34 0 -0.61 0.02 t-0.51 0.04 l0 3.76 l0.88 0 q1.76 0 2.52 -0.44 t0.76 -1.5 q0 -1.02 -0.77 -1.45 t-2.27 -0.43 z"></path></g><g id="SvgjsG3023" featurekey="EI8VXn-1" transform="matrix(2.4898845945082164,0,0,2.4898845945082164,-3.983813332855006,224.50887123254518)" fill="#ffffff"><path d="M4.72 17.46 q0.22 0.02 0.51 0.03 t0.69 0.01 q2.34 0 3.47 -1.18 t1.13 -3.26 q0 -2.18 -1.08 -3.3 t-3.42 -1.12 q-0.32 0 -0.66 0.01 t-0.64 0.05 l0 8.76 z M13.74 13.059999999999999 q0 1.8 -0.56 3.14 t-1.59 2.22 t-2.51 1.32 t-3.32 0.44 q-0.84 0 -1.96 -0.07 t-2.2 -0.29 l0 -13.5 q1.08 -0.2 2.25 -0.27 t2.01 -0.07 q1.78 0 3.23 0.4 t2.49 1.26 t1.6 2.2 t0.56 3.22 z M16.34 6.140000000000001 l3.12 0 l0 13.86 l-3.12 0 l0 -13.86 z M31.940000000000005 20 q-0.22 -0.72 -0.49 -1.48 t-0.53 -1.52 l-5.4 0 q-0.26 0.76 -0.53 1.52 t-0.49 1.48 l-3.24 0 q0.78 -2.24 1.48 -4.14 t1.37 -3.58 t1.32 -3.19 t1.35 -2.95 l2.98 0 q0.68 1.44 1.34 2.95 t1.33 3.19 t1.37 3.58 t1.48 4.14 l-3.34 0 z M28.200000000000003 9.28 q-0.1 0.3 -0.3 0.82 t-0.46 1.2 t-0.57 1.5 t-0.63 1.72 l3.94 0 q-0.32 -0.9 -0.62 -1.72 t-0.57 -1.5 t-0.47 -1.2 t-0.32 -0.82 z M41.14 5.98 q3.12 0 4.78 1.11 t1.66 3.45 q0 1.46 -0.67 2.37 t-1.93 1.43 q0.42 0.52 0.88 1.19 t0.91 1.4 t0.87 1.52 t0.78 1.55 l-3.5 0 q-0.38 -0.68 -0.77 -1.38 t-0.8 -1.36 t-0.81 -1.25 t-0.8 -1.07 l-1.54 0 l0 5.06 l-3.12 0 l0 -13.66 q1.02 -0.2 2.11 -0.28 t1.95 -0.08 z M41.32000000000001 8.64 q-0.34 0 -0.61 0.02 t-0.51 0.04 l0 3.76 l0.88 0 q1.76 0 2.52 -0.44 t0.76 -1.5 q0 -1.02 -0.77 -1.45 t-2.27 -0.43 z M50.42000000000001 6.140000000000001 l3.12 0 l0 13.86 l-3.12 0 l0 -13.86 z M56.74000000000001 20 l0 -13.86 l9.36 0 l0 2.62 l-6.24 0 l0 2.72 l5.54 0 l0 2.56 l-5.54 0 l0 3.34 l6.7 0 l0 2.62 l-9.82 0 z M72.64 17.62 q0.66 0 1.09 -0.11 t0.69 -0.3 t0.36 -0.45 t0.1 -0.58 q0 -0.68 -0.64 -1.13 t-2.2 -0.97 q-0.68 -0.24 -1.36 -0.55 t-1.22 -0.78 t-0.88 -1.14 t-0.34 -1.63 t0.36 -1.73 t1.02 -1.31 t1.6 -0.83 t2.12 -0.29 q1.4 0 2.42 0.3 t1.68 0.66 l-0.9 2.46 q-0.58 -0.3 -1.29 -0.53 t-1.71 -0.23 q-1.12 0 -1.61 0.31 t-0.49 0.95 q0 0.38 0.18 0.64 t0.51 0.47 t0.76 0.38 t0.95 0.35 q1.08 0.4 1.88 0.79 t1.33 0.91 t0.79 1.22 t0.26 1.7 q0 1.94 -1.36 3.01 t-4.1 1.07 q-0.92 0 -1.66 -0.11 t-1.31 -0.27 t-0.98 -0.34 t-0.69 -0.34 l0.88 -2.48 q0.62 0.34 1.53 0.61 t2.23 0.27 z"></path></g></svg>